/vscmnt/brussel_pixiu_data/_data_brussel/112/vsc11236/PredSimResults/SUBJ11opt3D/weighted-LRposFixed/expIG/worker_05.mot
version=1
nRows=4
nColumns=50
inDegrees=yes
endheader
                time	         pelvis_tilt	         pelvis_list	     pelvis_rotation	           pelvis_tx	           pelvis_ty	           pelvis_tz	       hip_flexion_r	     hip_adduction_r	      hip_rotation_r	        knee_angle_r	       ankle_angle_r	         mtp_angle_r	       hip_flexion_l	     hip_adduction_l	      hip_rotation_l	        knee_angle_l	       ankle_angle_l	         mtp_angle_l	    lumbar_extension	      lumbar_bending	     lumbar_rotation	 ercspn_r/activation	 intobl_r/activation	 extobl_r/activation	    abd_r/activation	    add_r/activation	hamstrings_r/activation	bifemsh_r/activation	glut_max_r/activation	iliopsoas_r/activation	rect_fem_r/activation	  vasti_r/activation	gastroc_r/activation	 soleus_r/activation	tib_ant_r/activation	 ercspn_l/activation	 intobl_l/activation	 extobl_l/activation	    abd_l/activation	    add_l/activation	hamstrings_l/activation	bifemsh_l/activation	glut_max_l/activation	iliopsoas_l/activation	rect_fem_l/activation	  vasti_l/activation	gastroc_l/activation	 soleus_l/activation	tib_ant_l/activation	
          0.00000000	         -1.96480799	         -1.54348710	          6.94452614	          0.00000000	          0.94543582	         -0.00477644	         29.49104953	         -0.90536844	         -2.41170295	         -8.98173893	          1.42308155	          0.21426020	        -12.92942965	         -3.22112879	          0.86420981	        -12.39712399	         13.98053049	         27.79130598	        -14.17158054	         -3.02583176	         -3.38402200	          0.02893238	          0.30163132	          0.07687640	          0.00999999	          0.21283666	          0.03605424	          0.10136001	          0.02545973	          0.11967612	          0.04591760	          0.02561409	          0.00999999	          0.00999999	          0.39622637	          0.00999999	          0.00999999	          0.00999999	          0.05163572	          0.00999999	          0.02155388	          0.30908668	          0.03693266	          0.18507727	          0.00999999	          0.00999999	          0.17017023	          0.35897836	          0.01545740	
          0.01459672	         -2.15801110	         -1.67298292	          6.95873175	          0.01828990	          0.94299216	         -0.00323021	         29.36541873	         -0.55825249	         -2.61905728	        -10.01117263	          0.90638475	          0.22898863	        -13.40683371	         -3.53686893	          0.35894878	        -13.16467746	         13.40959779	         29.57709970	        -13.65951873	         -2.42164260	         -3.62075821	          0.02327103	          0.24989242	          0.06183360	          0.00999999	          0.23311591	          0.03926126	          0.08152638	          0.04349370	          0.09625848	          0.03693267	          0.02060205	          0.01243278	          0.01540977	          0.40966441	          0.00999999	          0.00999999	          0.00999999	          0.04153190	          0.00999999	          0.02690600	          0.28143405	          0.02970586	          0.14886225	          0.00999999	          0.00999999	          0.15513018	          0.34265441	          0.01243277	
          0.02919345	         -2.32704494	         -1.83855981	          6.95291820	          0.03712906	          0.94079332	         -0.00163324	         29.14612454	         -0.19756917	         -2.70559059	        -11.21572238	          0.41814049	          0.20571099	        -13.79010396	         -3.89780420	         -0.15519546	        -14.17751620	         12.67983027	         31.46957767	        -13.09662844	         -1.76075652	         -3.86068701	          0.01871747	          0.21054712	          0.04973430	          0.01016873	          0.18750092	          0.05091688	          0.06557369	          0.09666934	          0.07742309	          0.02970586	          0.01657074	          0.00999999	          0.01239446	          0.46883849	          0.00999999	          0.00999999	          0.00999999	          0.03340514	          0.02276756	          0.04178053	          0.24839665	          0.02389316	          0.11973361	          0.00999999	          0.00999999	          0.12477506	          0.32047848	          0.00999999	
          0.04379017	         -2.47492422	         -2.02849802	          6.91474152	          0.05619310	          0.93904145	          0.00005289	         28.89924936	          0.17744382	         -2.90419962	        -12.36541562	         -0.31418466	          0.18328450	        -13.98983286	         -4.28843065	         -0.69326732	        -15.54277260	         11.74726242	         33.47368887	        -12.52045967	         -1.06491652	         -4.08976686	          0.01505493	          0.16934829	          0.04000254	          0.03082495	          0.19607814	          0.05981154	          0.05274255	          0.08897927	          0.06227332	          0.02389316	          0.06256163	          0.00999999	          0.00999999	          0.53217233	          0.02237882	          0.00999999	          0.00999999	          0.02686858	          0.01831260	          0.05673672	          0.20488034	          0.01921786	          0.09630472	          0.00999999	          0.00999999	          0.10035969	          0.29216961	          0.00999999	
